<svg id="Layer_1" data-name="Layer 1" xmlns="http://www.w3.org/2000/svg" viewBox="0 0 955.52 915.25"><defs><style>.cls-1{fill:none;stroke:#233554;stroke-linejoin:round;stroke-width:26.75px;}</style></defs><polygon class="cls-1" points="13.38 106.02 13.38 275.94 168.17 359.83 168.17 547.53 13.38 459.56 13.38 631.27 477.76 901.88 477.76 729.95 322.96 634.56 322.96 450.1 477.76 540.37 477.76 370.76 13.38 106.02"/><polygon class="cls-1" points="13.38 106.02 168.17 18.7 632.56 279.66 477.76 370.76 13.38 106.02"/><polygon class="cls-1" points="317.42 279.08 787.35 13.38 942.15 103.29 477.76 370.76 317.42 279.08"/><path class="cls-1" d="M111.35,53.58" transform="translate(-26.97 -51.77)"/><polygon class="cls-1" points="477.76 370.76 477.76 901.88 632.56 813.89 632.56 640.26 787.35 550.57 787.35 720.91 942.15 634.66 942.15 492.09 880.1 459.14 942.15 415.43 942.15 103.29 477.76 370.76"/><polygon class="cls-1" points="632.56 385.65 632.56 508.09 787.35 420.39 787.35 300.44 632.56 385.65"/><polygon class="cls-1" points="787.35 420.39 681.23 358.86 787.35 300.44 787.35 420.39"/><polygon class="cls-1" points="13.38 459.56 168.17 370.76 168.17 547.53 13.38 459.56"/><polygon class="cls-1" points="322.96 634.56 322.96 450.1 477.76 540.37 322.96 634.56"/><polygon class="cls-1" points="322.96 634.56 477.76 729.95 477.76 540.37 322.96 634.56"/><polygon class="cls-1" points="787.35 720.91 635 638.84 787.35 550.57 787.35 720.91"/></svg>