<?xml version="1.0" standalone="no"?>
<!DOCTYPE svg PUBLIC "-//W3C//DTD SVG 20010904//EN"
 "http://www.w3.org/TR/2001/REC-SVG-20010904/DTD/svg10.dtd">
<svg version="1.0" xmlns="http://www.w3.org/2000/svg"
 width="3982.000000pt" height="3982.000000pt" viewBox="0 0 3982.000000 3982.000000"
 preserveAspectRatio="xMidYMid meet">
<metadata>
Created by potrace 1.14, written by Peter Selinger 2001-2017
</metadata>
<g transform="translate(0.000000,3982.000000) scale(0.100000,-0.100000)"
fill="#000000" stroke="none">
<path d="M32606 38965 c-15 -8 -32 -15 -36 -15 -5 0 -55 -26 -112 -58 -57 -33
-130 -74 -163 -92 -33 -18 -67 -39 -76 -46 -8 -8 -19 -14 -23 -14 -4 0 -73
-38 -154 -84 -81 -46 -236 -133 -344 -194 -108 -62 -214 -121 -235 -133 -44
-25 -216 -122 -388 -220 -66 -37 -212 -119 -325 -183 -113 -63 -209 -119 -215
-123 -5 -5 -21 -14 -35 -20 -24 -12 -43 -23 -195 -108 -38 -21 -71 -43 -73
-47 -2 -4 -8 -8 -13 -8 -5 0 -177 -95 -382 -211 -204 -116 -379 -214 -387
-219 -33 -18 -159 -90 -230 -131 -41 -24 -77 -44 -80 -44 -3 0 -36 -19 -75
-41 -60 -36 -156 -90 -345 -196 -45 -25 -151 -86 -245 -140 -27 -16 -66 -36
-85 -46 -19 -9 -37 -19 -40 -22 -3 -3 -104 -61 -225 -129 -121 -69 -323 -183
-450 -254 -126 -72 -246 -139 -265 -150 -19 -11 -69 -39 -110 -62 -100 -57
-141 -80 -230 -130 -41 -23 -97 -54 -125 -70 -27 -15 -62 -36 -77 -46 -14 -11
-29 -19 -33 -19 -4 0 -45 -22 -92 -50 -47 -27 -87 -50 -88 -50 -2 0 -26 -13
-53 -29 -58 -34 -128 -73 -202 -114 -30 -16 -59 -33 -65 -37 -5 -4 -36 -22
-68 -39 -31 -17 -136 -76 -232 -131 -96 -55 -180 -100 -185 -100 -6 0 -10 -4
-10 -10 0 -5 -4 -10 -9 -10 -9 0 -172 -90 -181 -100 -3 -3 -27 -17 -55 -31
-63 -32 -376 -209 -390 -219 -5 -4 -46 -27 -90 -50 -44 -24 -87 -49 -96 -56
-8 -8 -18 -14 -21 -14 -4 0 -174 -95 -380 -211 -205 -117 -402 -227 -438 -247
-36 -19 -72 -41 -81 -48 -8 -8 -18 -14 -21 -14 -3 0 -86 -45 -184 -101 -98
-55 -199 -112 -224 -126 -25 -14 -112 -64 -195 -111 -82 -47 -166 -94 -185
-105 -312 -175 -396 -222 -400 -227 -3 -3 -20 -13 -38 -22 -88 -47 -188 -102
-192 -107 -3 -3 -23 -15 -45 -26 -22 -11 -68 -37 -103 -57 -34 -21 -64 -38
-65 -38 -2 0 -73 -40 -158 -88 -85 -48 -161 -91 -169 -95 -8 -4 -24 -13 -35
-20 -11 -7 -74 -43 -140 -80 -66 -37 -127 -72 -135 -77 -17 -11 -519 -293
-595 -335 -50 -28 -192 -109 -230 -132 -11 -7 -29 -16 -40 -21 -11 -5 -45 -24
-75 -42 -30 -18 -111 -64 -180 -103 -69 -38 -143 -80 -165 -92 -22 -13 -204
-116 -405 -230 l-365 -206 -30 15 c-16 9 -61 33 -100 55 -38 22 -86 48 -105
59 -19 11 -138 78 -265 149 -126 71 -252 142 -280 158 -27 15 -68 37 -90 50
-22 12 -97 55 -166 94 -69 39 -131 71 -137 71 -5 0 -12 3 -14 8 -1 4 -55 36
-118 72 -151 84 -350 196 -645 362 -132 74 -260 146 -285 160 -25 14 -226 127
-448 251 -221 125 -407 227 -412 227 -5 0 -15 6 -22 13 -7 7 -94 58 -193 113
-99 56 -198 111 -220 124 -104 58 -545 306 -580 326 -22 12 -84 47 -139 78
-54 31 -100 56 -102 56 -3 0 -21 10 -42 23 -20 13 -62 37 -92 54 -30 16 -179
100 -330 185 -151 85 -302 170 -335 188 -33 18 -125 70 -205 115 -80 45 -165
93 -190 107 -48 26 -271 152 -330 185 -19 11 -237 134 -485 273 -450 253 -984
553 -1210 680 -194 109 -1228 691 -1368 768 -70 40 -132 72 -137 72 -6 0 -10
4 -10 9 0 5 -12 14 -28 20 -15 6 -47 22 -72 37 -65 39 -538 304 -585 328 -22
12 -42 24 -45 27 -3 4 -36 23 -75 44 -38 20 -97 53 -130 71 -33 19 -71 40 -85
47 -14 6 -27 14 -30 18 -3 3 -41 25 -85 49 -44 24 -87 49 -95 56 -8 7 -19 13
-25 14 -5 1 -64 32 -130 69 -66 38 -140 79 -165 93 -25 14 -191 107 -370 208
-179 101 -345 194 -370 208 -25 13 -58 32 -75 42 -16 10 -50 29 -75 42 -25 14
-243 137 -485 273 -466 262 -535 299 -535 289 0 -4 -6 -2 -12 3 -25 20 -150
36 -232 30 -126 -9 -152 -20 -460 -194 -120 -67 -221 -123 -224 -123 -3 0 -13
-6 -21 -14 -9 -7 -45 -29 -81 -48 -36 -19 -83 -45 -105 -58 -22 -13 -87 -49
-145 -82 -58 -32 -112 -63 -120 -68 -58 -35 -233 -130 -241 -130 -5 0 -9 -4
-9 -10 0 -5 -4 -10 -9 -10 -8 0 -149 -77 -201 -110 -8 -5 -35 -20 -61 -34 -25
-13 -234 -131 -465 -261 -230 -131 -441 -250 -469 -265 -82 -45 -249 -139
-265 -149 -8 -6 -37 -22 -65 -37 -27 -14 -58 -34 -69 -43 -10 -9 -21 -15 -25
-15 -6 2 -31 -12 -179 -98 -46 -26 -86 -48 -87 -48 -2 0 -26 -13 -53 -29 -47
-27 -77 -44 -212 -119 -36 -20 -67 -40 -68 -44 -2 -4 -8 -8 -14 -8 -9 0 -92
-46 -443 -245 -110 -63 -1080 -609 -1165 -657 -72 -40 -505 -284 -625 -353
-282 -160 -676 -382 -735 -413 -36 -19 -77 -43 -92 -54 -14 -10 -30 -18 -35
-18 -23 0 -154 -154 -187 -221 l-36 -72 0 -3723 c0 -3441 1 -3727 17 -3766 28
-73 103 -177 163 -227 32 -27 174 -111 321 -191 145 -79 284 -154 309 -168 54
-29 267 -145 365 -197 39 -21 84 -45 100 -55 17 -9 71 -39 120 -65 140 -75
191 -102 316 -171 64 -35 122 -64 128 -64 6 0 11 -4 11 -9 0 -5 8 -11 18 -14
9 -3 49 -23 87 -45 67 -37 127 -69 300 -162 44 -24 148 -80 230 -125 83 -45
186 -101 230 -125 44 -23 103 -55 130 -70 116 -63 414 -225 465 -252 30 -17
161 -88 290 -158 129 -70 269 -145 310 -168 66 -35 158 -85 350 -189 30 -16
96 -51 145 -78 50 -26 95 -51 100 -55 6 -4 60 -33 120 -65 61 -32 124 -66 142
-76 18 -10 63 -35 100 -55 37 -20 115 -63 173 -94 58 -31 134 -73 170 -92 36
-19 119 -64 185 -100 66 -36 154 -83 195 -106 211 -113 614 -333 617 -336 2
-2 -81 -52 -184 -111 -103 -59 -201 -115 -218 -125 -182 -104 -259 -148 -308
-176 -33 -19 -63 -34 -68 -34 -5 0 -9 -4 -9 -10 0 -5 -4 -10 -8 -10 -4 0 -80
-41 -168 -91 -87 -51 -177 -102 -199 -114 -22 -13 -155 -89 -295 -170 -140
-81 -273 -157 -295 -169 -22 -12 -129 -74 -237 -137 -109 -63 -206 -118 -216
-124 -52 -29 -230 -132 -247 -142 -11 -7 -27 -16 -35 -20 -8 -4 -116 -65 -240
-136 -124 -72 -241 -139 -260 -150 -19 -10 -64 -36 -100 -57 -36 -21 -81 -47
-100 -57 -59 -33 -214 -123 -230 -133 -8 -6 -197 -114 -420 -241 -223 -128
-448 -257 -500 -287 -52 -30 -115 -66 -140 -80 -25 -14 -99 -56 -165 -94 -66
-38 -397 -228 -735 -421 -572 -327 -620 -356 -686 -422 -51 -50 -81 -91 -108
-145 l-36 -75 2 -3775 3 -3775 33 -60 c62 -115 144 -197 272 -269 36 -20 72
-41 80 -46 8 -6 105 -62 215 -126 110 -64 214 -125 230 -135 17 -10 40 -23 52
-28 12 -6 41 -22 63 -36 23 -14 56 -34 73 -44 18 -10 291 -169 607 -353 316
-185 591 -345 610 -356 82 -47 204 -118 228 -134 15 -10 34 -21 42 -24 17 -8
3 0 560 -326 200 -117 369 -215 375 -217 5 -2 21 -12 35 -21 14 -9 45 -28 70
-42 53 -30 354 -205 525 -305 145 -85 589 -344 636 -371 19 -11 86 -50 149
-87 63 -37 135 -79 160 -93 25 -13 56 -32 70 -41 14 -9 39 -23 55 -31 17 -8
35 -19 40 -23 6 -4 111 -67 235 -139 124 -71 239 -138 255 -148 85 -49 524
-305 551 -320 31 -18 177 -104 204 -120 18 -12 163 -96 207 -121 17 -10 265
-154 550 -320 285 -166 532 -310 548 -319 17 -10 92 -54 169 -99 76 -44 142
-81 147 -81 5 0 9 -4 9 -10 0 -5 6 -10 13 -10 7 0 28 -11 47 -23 19 -13 56
-36 82 -50 54 -30 503 -291 588 -342 55 -33 634 -370 700 -408 19 -11 47 -27
62 -36 32 -19 234 -136 292 -169 23 -13 58 -35 78 -48 21 -13 39 -24 42 -24 2
0 62 -34 132 -76 71 -42 154 -90 184 -107 30 -16 73 -42 95 -56 22 -14 42 -26
45 -26 4 0 77 -43 250 -145 26 -16 124 -73 155 -90 53 -30 309 -180 325 -189
43 -27 456 -267 465 -270 5 -2 17 -9 25 -16 8 -7 40 -26 70 -42 30 -17 161
-92 290 -168 129 -76 249 -145 265 -155 316 -182 731 -426 733 -432 2 -5 8 -8
13 -8 6 0 132 -71 282 -159 150 -87 288 -168 307 -179 19 -11 114 -66 210
-122 218 -128 222 -130 295 -172 82 -47 401 -234 507 -297 48 -28 91 -51 97
-51 6 0 11 -4 11 -10 0 -5 4 -10 9 -10 5 0 55 -27 110 -60 56 -33 104 -60 107
-60 3 0 19 -9 34 -20 26 -19 105 -65 195 -115 22 -12 125 -73 229 -134 104
-61 190 -111 192 -111 2 0 28 -16 58 -35 30 -19 57 -35 60 -35 3 0 45 -25 95
-55 50 -30 92 -55 94 -55 3 0 57 -31 121 -70 65 -38 119 -70 122 -70 2 0 33
-17 67 -38 69 -43 234 -139 287 -168 19 -10 37 -21 40 -24 3 -3 57 -35 120
-72 63 -36 129 -74 147 -84 18 -11 90 -53 160 -94 70 -41 137 -80 148 -86 11
-5 61 -34 110 -64 50 -29 104 -61 120 -70 17 -9 314 -183 660 -385 347 -202
646 -377 665 -387 19 -11 76 -44 125 -73 50 -29 106 -62 125 -73 19 -11 80
-46 135 -79 55 -32 107 -62 115 -66 8 -4 33 -18 55 -32 22 -14 51 -31 65 -38
14 -6 27 -14 30 -18 3 -3 17 -12 33 -20 15 -8 94 -53 175 -100 81 -47 162 -91
181 -98 20 -6 105 -11 208 -11 143 0 182 3 211 17 21 9 174 95 340 190 167 95
306 173 309 173 3 0 17 8 31 18 15 11 52 33 82 49 56 31 448 253 710 403 80
45 165 94 190 108 68 38 908 515 1860 1057 124 70 245 139 270 153 25 14 185
105 355 202 171 97 499 284 730 415 231 131 463 263 515 293 143 82 162 93
200 114 222 123 957 543 980 560 68 51 139 133 177 205 23 43 42 81 42 86 0 4
6 24 12 45 10 29 13 733 15 3265 1 1776 5 3231 8 3234 2 3 29 -8 58 -25 29
-16 85 -46 123 -67 39 -20 108 -58 155 -83 115 -63 182 -99 281 -151 46 -24
89 -47 94 -51 6 -4 55 -31 110 -60 55 -29 139 -75 188 -101 48 -27 91 -49 96
-49 5 0 14 -7 21 -15 7 -8 16 -13 20 -10 3 2 17 -4 30 -13 25 -18 124 -71 220
-119 30 -16 57 -31 60 -34 3 -3 30 -18 60 -33 30 -15 69 -35 85 -45 17 -10 80
-44 140 -76 61 -32 115 -61 120 -65 6 -4 53 -30 105 -58 52 -27 127 -66 165
-87 171 -91 223 -119 270 -145 28 -15 111 -60 185 -99 74 -40 142 -76 150 -81
8 -5 188 -102 400 -216 212 -114 408 -220 435 -235 28 -15 88 -48 135 -73 47
-26 110 -59 140 -74 30 -15 57 -30 58 -34 2 -5 7 -8 12 -8 4 0 43 -19 86 -43
44 -24 123 -67 177 -96 54 -28 143 -76 198 -106 55 -30 102 -55 104 -55 2 0
30 -15 62 -34 32 -18 108 -59 168 -91 61 -32 115 -61 120 -65 6 -4 53 -30 105
-57 52 -28 127 -67 165 -88 242 -130 321 -173 415 -225 131 -73 224 -100 346
-100 123 0 197 24 359 115 189 106 191 108 410 228 110 61 202 113 205 116 3
3 23 15 45 26 22 11 89 48 149 82 60 35 111 63 113 63 2 0 35 18 71 39 37 21
87 50 112 64 25 13 245 136 490 272 245 136 474 264 510 283 36 20 67 38 70
41 3 3 23 15 45 26 22 11 123 66 225 123 102 57 208 116 235 131 28 16 104 59
170 96 66 37 129 71 140 77 11 5 29 14 40 21 28 17 187 107 260 147 50 27 637
354 795 442 154 87 486 271 545 303 39 21 108 60 154 87 46 26 85 48 87 48 2
0 25 13 51 28 26 16 77 44 113 64 36 20 121 67 190 105 69 39 145 81 170 95
25 14 61 34 80 45 19 11 62 35 95 53 33 18 94 52 135 75 41 23 102 57 135 75
33 18 76 42 95 53 64 36 394 220 432 240 93 50 194 156 244 256 l29 56 0 3175
0 3175 -34 63 c-42 77 -121 168 -181 209 -49 33 -114 69 -285 158 -60 32 -148
78 -195 103 -138 75 -260 140 -330 175 -36 17 -67 34 -70 37 -3 3 -23 14 -45
26 -22 12 -94 49 -160 84 -66 34 -142 75 -170 90 -27 15 -99 53 -160 85 -60
32 -163 87 -228 122 -65 34 -122 63 -126 63 -5 0 -14 6 -20 14 -11 13 9 28
368 280 31 21 115 80 186 131 72 51 229 162 350 247 121 85 315 221 430 303
116 81 274 192 352 247 120 84 201 157 248 219 22 30 66 119 59 119 -5 0 -3 5
4 12 9 9 12 1513 12 6705 l0 6692 -25 53 c-40 83 -51 100 -102 154 -64 68 -90
86 -288 199 -93 53 -181 104 -195 113 -14 9 -27 17 -30 17 -3 0 -60 33 -127
73 -68 39 -178 104 -245 143 -68 38 -130 74 -138 79 -42 25 -127 76 -145 85
-11 6 -146 85 -300 175 -154 90 -293 171 -310 180 -25 14 -176 102 -310 180
-16 9 -102 59 -190 110 -88 51 -212 123 -275 160 -63 37 -131 77 -150 87 -19
11 -91 53 -160 93 -68 40 -138 81 -155 90 -100 58 -232 134 -310 180 -383 223
-967 562 -1000 580 -22 12 -44 26 -50 30 -5 4 -30 19 -55 32 -25 14 -193 112
-375 218 -181 105 -348 202 -370 215 -22 12 -96 55 -165 95 -68 40 -138 81
-155 90 -16 9 -95 55 -175 102 -347 203 -917 532 -942 544 -16 8 -40 20 -56
28 -41 21 -376 22 -416 1z m654 -1490 c234 -136 443 -258 465 -270 22 -13 145
-84 274 -159 128 -75 235 -136 237 -136 2 0 23 -13 47 -30 25 -16 48 -30 51
-30 4 0 23 -11 44 -23 20 -13 57 -35 82 -49 25 -14 155 -89 290 -168 135 -79
259 -151 276 -160 30 -17 175 -103 204 -120 8 -6 85 -50 170 -99 85 -49 169
-97 187 -107 17 -11 78 -46 135 -78 57 -32 111 -66 121 -74 9 -8 17 -11 17 -7
0 4 8 1 18 -7 16 -13 45 -31 143 -86 20 -11 70 -41 112 -66 41 -25 77 -46 80
-46 2 0 45 -25 95 -55 50 -30 96 -55 102 -55 5 0 10 -4 10 -10 0 -5 4 -10 8
-10 10 0 450 -253 469 -270 7 -5 14 -10 17 -10 2 0 71 -39 153 -86 81 -48 177
-104 213 -125 36 -20 81 -46 100 -55 19 -10 37 -20 40 -23 3 -4 16 -12 30 -20
14 -8 95 -55 180 -105 85 -49 172 -99 192 -110 20 -12 74 -43 120 -70 46 -28
98 -58 117 -68 30 -15 32 -18 15 -25 -10 -4 -57 -29 -104 -56 -244 -142 -289
-167 -299 -167 -6 0 -11 -4 -11 -8 0 -5 -22 -19 -50 -32 -27 -13 -50 -26 -50
-29 0 -3 -11 -11 -24 -17 -18 -8 -730 -417 -826 -475 -8 -4 -89 -51 -180 -103
-91 -51 -179 -102 -197 -112 -18 -11 -87 -51 -155 -90 -97 -55 -504 -291 -578
-334 -89 -52 -193 -110 -198 -110 -3 0 -13 -6 -21 -14 -9 -8 -38 -26 -66 -40
-27 -15 -57 -31 -65 -36 -16 -10 -99 -58 -160 -93 -19 -10 -228 -131 -465
-267 -236 -136 -455 -262 -485 -279 -30 -17 -62 -35 -70 -40 -8 -5 -91 -53
-185 -107 -93 -54 -208 -120 -255 -148 -47 -28 -87 -51 -90 -51 -3 0 -48 -26
-100 -56 -86 -51 -224 -131 -318 -185 -31 -18 -108 -62 -267 -154 -55 -31
-440 -253 -470 -270 -16 -10 -59 -34 -95 -55 -36 -21 -81 -46 -100 -57 -49
-28 -650 -375 -855 -494 -93 -54 -185 -105 -202 -113 -18 -8 -33 -19 -33 -23
0 -4 -4 -8 -9 -8 -5 0 -123 -66 -262 -146 -140 -81 -267 -155 -284 -164 -42
-24 -411 -237 -520 -300 -49 -29 -110 -64 -135 -77 -41 -23 -143 -81 -180
-103 -70 -41 -203 -118 -240 -138 -25 -14 -77 -44 -115 -68 -39 -23 -88 -50
-108 -60 -20 -10 -37 -21 -37 -26 0 -4 -4 -8 -10 -8 -8 0 -279 -155 -1117
-638 -142 -82 -278 -160 -303 -174 -25 -14 -101 -58 -168 -97 -68 -39 -128
-71 -132 -71 -5 0 -10 -4 -12 -8 -1 -5 -39 -28 -82 -53 -43 -24 -91 -51 -105
-59 -14 -8 -57 -33 -96 -54 -38 -22 -71 -43 -73 -48 -2 -4 -8 -8 -13 -8 -5 0
-69 -34 -142 -77 -73 -42 -161 -93 -197 -113 -36 -20 -124 -71 -197 -113 -73
-43 -134 -77 -137 -77 -3 0 -236 130 -518 288 -282 159 -533 300 -558 314 -25
14 -169 95 -320 180 -151 85 -302 170 -335 188 -81 45 -101 56 -238 134 -65
37 -137 78 -160 90 -23 12 -130 72 -237 133 -107 60 -217 122 -245 138 -50 27
-82 46 -370 207 -297 167 -572 322 -682 384 -62 35 -115 64 -119 64 -4 0 -15
6 -23 14 -9 7 -43 28 -76 46 -33 18 -89 48 -124 67 -35 19 -97 55 -138 79 -41
24 -76 44 -78 44 -1 0 -47 25 -101 56 -55 31 -124 70 -154 87 -46 25 -248 139
-485 272 -27 16 -68 38 -90 50 -22 13 -108 61 -191 107 -82 47 -172 97 -200
112 -27 14 -43 26 -36 26 7 0 59 26 115 59 109 63 112 64 287 162 63 35 117
66 120 69 5 5 34 21 139 76 24 13 48 27 55 32 6 5 38 24 71 42 33 18 164 92
290 163 127 72 255 144 285 161 30 16 104 58 163 93 60 35 110 63 112 63 2 0
26 13 53 29 53 31 117 68 202 114 30 17 104 59 163 93 59 35 116 66 127 69 11
4 20 11 20 16 0 5 5 9 12 9 6 0 41 17 77 39 56 33 431 245 571 323 25 14 234
132 465 263 231 131 472 267 535 303 63 36 129 73 145 83 17 10 37 22 45 26 8
3 80 43 160 89 80 45 161 91 180 101 19 11 141 80 270 153 129 73 286 162 349
197 63 35 218 123 345 195 221 126 433 246 486 275 48 27 106 60 325 183 121
69 222 128 223 132 2 5 8 8 14 8 6 0 45 20 87 44 42 24 99 56 126 71 28 16
115 65 195 110 178 101 200 114 325 183 55 31 102 60 103 64 2 4 8 8 13 8 5 0
181 97 392 216 462 262 429 243 502 284 33 18 77 44 97 57 21 12 40 23 42 23
3 0 55 29 117 65 61 36 113 65 115 65 2 0 56 31 121 68 65 38 237 135 383 217
146 82 268 154 272 160 4 5 8 6 8 1 0 -5 8 -3 18 5 9 8 31 22 47 30 17 9 221
125 455 257 234 132 448 252 475 267 28 15 55 31 60 35 6 4 37 22 70 40 33 18
128 71 210 118 83 47 170 96 195 110 25 13 52 31 61 38 8 8 19 14 23 14 5 0
58 29 120 64 61 35 131 75 156 88 25 14 146 82 270 153 124 70 241 136 260
147 19 10 57 32 85 47 33 19 55 26 65 21 8 -4 206 -119 440 -255z m-26197 16
c29 -16 95 -53 148 -83 52 -30 102 -57 110 -61 8 -4 21 -11 29 -17 18 -12 348
-198 435 -245 33 -18 100 -55 149 -84 49 -28 90 -51 92 -51 1 0 44 -24 96 -54
51 -29 113 -64 138 -78 25 -14 119 -67 210 -118 91 -51 185 -104 210 -118 25
-14 128 -72 230 -130 102 -58 208 -117 235 -132 28 -15 124 -69 215 -120 91
-52 186 -105 212 -119 26 -14 96 -53 155 -87 60 -34 131 -74 158 -89 28 -15
80 -45 117 -66 36 -22 69 -39 73 -39 3 0 18 -8 33 -19 15 -10 72 -43 127 -74
55 -30 168 -93 250 -140 171 -95 225 -126 293 -163 26 -15 72 -42 103 -60 31
-19 59 -34 61 -34 3 0 61 -32 129 -71 68 -39 149 -85 179 -101 30 -17 105 -59
165 -93 61 -34 130 -73 155 -87 25 -14 170 -95 322 -181 152 -86 307 -173 345
-193 37 -21 105 -59 151 -86 46 -26 86 -48 88 -48 2 0 21 -10 42 -23 20 -13
62 -37 92 -54 30 -16 292 -163 582 -326 290 -164 532 -297 537 -297 6 0 11 -4
11 -10 0 -5 5 -10 10 -10 6 0 40 -18 76 -40 36 -22 67 -40 69 -40 2 0 103 -57
226 -126 123 -69 249 -140 279 -156 30 -17 143 -80 250 -141 107 -60 218 -122
245 -137 44 -24 678 -381 795 -448 25 -14 63 -35 85 -47 22 -12 114 -64 205
-115 91 -52 183 -103 205 -115 22 -12 180 -101 350 -197 171 -96 337 -190 370
-208 71 -40 58 -32 360 -202 132 -74 267 -150 300 -168 33 -18 72 -41 87 -51
14 -11 29 -19 33 -19 3 0 52 -26 108 -59 56 -32 127 -72 157 -89 30 -16 99
-55 154 -86 54 -31 100 -56 102 -56 3 0 21 -10 42 -23 20 -13 66 -40 102 -59
134 -73 200 -112 200 -117 -1 -5 -198 -118 -447 -257 -21 -11 -180 -101 -353
-199 -446 -252 -538 -304 -600 -338 -30 -17 -66 -38 -80 -47 -14 -9 -51 -30
-82 -45 -32 -16 -58 -33 -58 -37 0 -4 -5 -8 -11 -8 -10 0 -193 -102 -657 -367
-90 -51 -165 -93 -167 -93 -2 0 -36 -19 -77 -43 -40 -24 -102 -60 -138 -79
-139 -77 -616 -347 -625 -355 -6 -4 -45 -26 -88 -48 -42 -22 -77 -43 -77 -47
0 -5 -5 -8 -10 -8 -6 0 -183 -97 -393 -216 -210 -119 -395 -224 -412 -234 -16
-9 -50 -28 -75 -42 -25 -14 -97 -55 -160 -91 -607 -342 -796 -450 -803 -457
-7 -6 -73 28 -312 165 -22 13 -278 159 -570 325 -291 166 -559 319 -595 340
-53 31 -647 369 -830 472 -25 14 -103 59 -175 100 -71 41 -150 86 -175 100
-25 14 -126 72 -225 128 -99 57 -198 113 -220 126 -22 12 -94 53 -160 91 -66
38 -127 72 -135 76 -8 4 -28 15 -45 26 -16 10 -239 137 -495 283 -256 146
-706 402 -1000 570 -294 168 -551 314 -570 325 -19 11 -100 57 -180 103 -80
46 -210 120 -290 165 -80 45 -169 97 -198 114 -29 17 -55 31 -58 31 -2 0 -21
11 -42 23 -20 13 -58 36 -84 50 -26 14 -125 70 -220 125 -95 54 -193 110 -218
124 -25 14 -90 51 -145 83 -55 31 -118 67 -140 80 -22 12 -80 45 -129 74 -49
28 -90 51 -91 51 -1 0 -52 29 -113 64 -61 36 -133 77 -159 92 -26 14 -382 217
-791 450 -408 233 -745 424 -749 424 -4 0 -14 6 -22 14 -9 7 -41 27 -71 43
-30 17 -71 39 -90 50 -147 85 -514 293 -517 293 -2 0 -16 8 -31 19 -21 14
-417 241 -662 378 -19 11 -181 103 -360 205 -179 102 -341 195 -360 205 -19
11 -75 43 -124 72 -49 28 -92 51 -96 51 -4 0 -13 6 -19 14 -11 13 67 59 629
374 25 14 83 47 129 74 46 26 85 48 87 48 2 0 38 20 80 45 41 25 77 45 79 45
2 0 36 19 77 43 40 24 80 47 88 51 21 10 58 31 198 111 68 39 139 78 160 89
20 10 39 22 40 27 2 5 8 9 14 9 6 0 63 30 127 67 64 36 141 80 171 96 30 16
60 33 65 37 6 4 30 18 55 32 25 14 259 145 520 293 261 147 502 282 535 300
33 19 86 48 117 67 32 18 90 52 130 74 152 86 395 223 443 249 28 16 115 65
195 110 80 46 161 91 180 102 19 11 161 91 315 178 154 87 309 174 345 193 36
19 72 41 81 48 8 8 19 14 22 14 4 0 50 25 103 55 53 31 126 72 163 92 36 20
70 40 76 44 12 12 9 13 68 -20z m31611 -9677 c-1 -3215 -3 -5847 -5 -5848 -2
-2 -40 -29 -84 -60 -44 -31 -89 -63 -100 -70 -27 -20 -360 -254 -410 -289 -22
-15 -80 -57 -130 -92 -49 -35 -119 -84 -155 -109 -123 -85 -505 -354 -546
-385 -23 -17 -44 -31 -47 -31 -3 0 -16 -9 -29 -20 -12 -11 -212 -153 -442
-315 -231 -162 -439 -313 -463 -335 -42 -41 -107 -132 -103 -146 1 -4 -3 -10
-10 -14 -6 -4 -12 -13 -13 -21 -2 -8 -6 -19 -10 -25 -16 -26 -37 -144 -37
-211 0 -226 116 -414 330 -530 30 -17 100 -54 155 -83 55 -29 165 -87 245
-130 80 -42 190 -101 245 -130 55 -29 127 -67 160 -85 33 -18 134 -72 225
-120 91 -48 201 -106 245 -130 197 -105 409 -217 510 -270 61 -32 124 -66 140
-75 17 -10 89 -48 160 -85 72 -38 138 -74 149 -81 18 -12 18 -89 18 -2629 0
-2505 -1 -2617 -18 -2629 -10 -8 -34 -22 -53 -32 -20 -10 -69 -38 -109 -61
-41 -24 -75 -43 -77 -43 -2 0 -50 -26 -107 -58 -57 -33 -128 -73 -158 -89 -30
-17 -228 -127 -440 -245 -212 -118 -412 -230 -445 -248 -33 -18 -76 -42 -95
-53 -19 -11 -116 -65 -215 -120 -99 -55 -200 -111 -225 -125 -25 -14 -277
-154 -560 -312 -283 -158 -537 -300 -565 -315 -27 -16 -183 -102 -345 -193
-162 -91 -317 -177 -345 -192 -27 -15 -70 -39 -95 -52 -81 -46 -574 -320 -625
-349 -27 -15 -115 -64 -194 -108 -79 -45 -148 -81 -152 -81 -4 0 -14 -6 -21
-13 -7 -7 -42 -28 -78 -46 -36 -19 -81 -44 -100 -56 -19 -12 -45 -25 -57 -29
-13 -4 -23 -12 -23 -17 0 -5 -9 -9 -19 -9 -11 0 -21 -4 -23 -8 -4 -10 -120
-73 -125 -69 -1 2 -3 1389 -4 3083 0 2997 -1 3081 -19 3152 -28 107 -75 187
-157 269 -112 113 -256 173 -414 173 -134 0 -219 -30 -408 -144 -51 -31 -95
-56 -97 -56 -2 0 -97 -55 -211 -121 -115 -67 -223 -130 -240 -140 -18 -11 -48
-27 -65 -38 -51 -29 -141 -81 -288 -166 -74 -42 -172 -99 -216 -126 -45 -27
-87 -49 -93 -49 -6 0 -11 -4 -11 -10 0 -5 -4 -10 -9 -10 -7 0 -367 -205 -421
-240 -8 -5 -51 -30 -95 -55 -44 -25 -98 -56 -121 -69 -201 -118 -416 -243
-449 -261 -63 -36 -401 -232 -498 -289 -48 -28 -100 -58 -116 -67 -16 -8 -60
-34 -97 -56 -56 -34 -210 -123 -419 -243 -124 -71 -309 -179 -372 -216 -41
-24 -77 -44 -80 -44 -3 0 -17 -8 -31 -19 -15 -10 -47 -29 -72 -43 -86 -48
-415 -240 -427 -250 -7 -6 -13 -7 -13 -3 0 5 -8 1 -17 -7 -22 -19 -212 -128
-223 -128 -5 0 -10 -4 -12 -8 -3 -7 -70 -48 -198 -119 -19 -11 -120 -70 -225
-130 -104 -61 -206 -120 -225 -131 -19 -10 -75 -43 -125 -72 -49 -29 -110 -64
-135 -78 -25 -14 -73 -43 -108 -64 -34 -21 -64 -38 -66 -38 -2 0 -131 -74
-286 -165 -156 -91 -285 -165 -287 -165 -8 0 -63 -50 -120 -109 -61 -62 -120
-164 -138 -236 -4 -16 -10 -39 -13 -50 -3 -11 -7 -1577 -9 -3480 -1 -1903 -2
-3474 -2 -3492 -1 -29 -8 -35 -83 -79 -46 -26 -92 -53 -103 -59 -24 -13 -234
-133 -255 -145 -17 -10 -348 -198 -401 -228 -19 -10 -65 -36 -104 -57 -38 -21
-81 -46 -95 -55 -14 -9 -50 -30 -80 -47 -96 -53 -154 -86 -192 -110 -21 -12
-40 -23 -42 -23 -3 0 -89 -49 -193 -108 -176 -101 -381 -217 -483 -275 -25
-14 -72 -41 -105 -60 -33 -20 -80 -47 -105 -60 -25 -13 -126 -70 -225 -127
-211 -121 -257 -147 -307 -174 -20 -12 -103 -59 -185 -106 -81 -47 -157 -90
-168 -96 -11 -6 -90 -50 -175 -99 -161 -92 -168 -96 -371 -209 -68 -39 -125
-73 -127 -78 -2 -4 -8 -8 -14 -8 -5 0 -48 -22 -95 -50 -47 -27 -87 -50 -89
-50 -2 0 -21 -10 -42 -23 -20 -13 -62 -37 -92 -54 -119 -66 -446 -252 -455
-260 -6 -4 -39 -23 -74 -42 -35 -19 -134 -74 -219 -122 -85 -49 -159 -89 -164
-89 -4 0 -8 -4 -8 -10 0 -5 -5 -10 -11 -10 -5 0 -53 -25 -105 -55 -53 -30 -97
-55 -100 -55 -2 0 -4 4674 -4 10388 l0 10387 108 61 c103 60 268 154 697 402
264 152 380 219 435 249 25 14 50 29 55 33 6 4 30 19 55 32 25 14 191 110 370
213 179 104 341 197 360 207 19 10 49 27 65 37 39 23 547 316 605 349 25 14
97 55 160 92 63 37 131 77 150 87 95 54 586 337 595 343 6 4 30 19 55 32 25
14 61 34 80 45 33 19 254 146 345 198 22 13 81 47 130 75 50 29 115 66 145 83
30 16 60 33 65 37 6 4 71 43 145 85 74 43 194 112 265 153 72 41 146 84 165
95 19 11 55 31 80 45 25 13 52 31 61 38 8 8 18 14 22 14 4 0 118 64 254 143
136 79 257 148 268 154 11 7 74 43 140 81 66 38 194 112 285 164 91 52 224
129 295 170 199 115 397 229 430 248 48 27 208 120 225 130 8 5 218 126 465
268 248 142 539 310 648 373 109 63 212 122 230 132 18 11 104 60 192 110 88
50 171 98 185 107 14 10 48 29 75 44 42 24 258 148 305 176 26 16 283 162 330
188 25 14 50 29 57 34 7 5 27 17 45 27 18 9 152 86 298 170 146 85 283 164
305 176 22 13 112 65 200 115 88 51 180 104 205 118 25 14 77 45 117 69 39 23
74 43 77 43 4 0 25 12 49 27 23 15 56 34 72 43 25 14 295 169 403 231 17 11
47 27 65 37 54 32 141 82 157 93 24 15 379 218 440 251 30 17 60 34 65 38 6 4
181 106 390 226 209 120 450 258 535 307 85 49 171 99 190 109 19 11 184 106
365 211 411 237 374 216 475 273 47 26 87 51 88 56 2 4 8 8 13 8 6 0 54 25
107 56 53 31 111 65 128 74 323 185 733 421 782 451 35 22 65 39 67 39 3 0 33
17 67 38 35 21 68 41 73 43 6 2 72 40 148 84 76 44 155 89 175 101 20 11 114
65 207 119 277 160 427 245 436 245 4 0 9 4 11 8 2 5 28 22 58 39 30 16 114
64 185 105 72 41 222 128 335 193 113 65 232 134 265 153 33 19 74 43 92 53
17 10 154 89 305 175 150 87 338 195 417 240 79 46 149 88 154 93 6 6 11 11
12 11 0 0 -1 -2631 -1 -5846z m-36910 5377 c329 -187 602 -341 606 -341 5 0
10 -3 12 -7 2 -5 17 -15 33 -24 17 -9 64 -36 105 -60 41 -24 77 -44 80 -44 3
0 16 -8 30 -17 24 -15 251 -145 350 -200 25 -14 158 -89 295 -168 138 -79 266
-152 285 -163 19 -10 64 -36 100 -57 36 -21 83 -48 105 -60 22 -12 101 -57
175 -100 75 -43 158 -90 185 -106 36 -20 1135 -646 1320 -752 11 -6 65 -37
120 -68 55 -31 115 -65 133 -75 17 -11 49 -29 70 -40 223 -127 482 -274 502
-287 14 -9 27 -17 30 -17 3 0 50 -26 105 -58 55 -32 109 -63 120 -69 11 -7
187 -107 390 -223 204 -117 397 -227 430 -245 33 -18 74 -41 90 -51 17 -10 84
-48 150 -86 66 -37 128 -72 137 -78 9 -5 29 -17 45 -26 97 -55 132 -75 165
-96 21 -12 39 -23 42 -23 2 0 65 -36 141 -80 76 -44 139 -80 140 -80 3 0 151
-85 260 -148 21 -12 526 -300 560 -320 11 -6 63 -35 115 -65 52 -30 111 -63
130 -74 19 -10 97 -54 173 -98 76 -44 160 -92 185 -106 26 -14 65 -36 87 -48
83 -48 245 -141 296 -171 30 -17 66 -36 82 -43 15 -6 27 -15 27 -19 0 -4 4 -8
10 -8 5 0 33 -14 62 -31 29 -18 73 -43 98 -57 25 -14 344 -196 710 -405 366
-208 683 -389 705 -402 22 -12 230 -131 463 -264 233 -133 440 -250 460 -261
20 -11 44 -25 52 -30 13 -9 395 -227 530 -302 25 -14 137 -78 250 -143 113
-64 228 -130 255 -145 28 -15 91 -51 140 -80 50 -29 119 -68 155 -88 36 -19
72 -41 81 -48 8 -8 19 -14 23 -14 4 0 49 -25 101 -55 51 -30 98 -55 103 -55 6
0 12 -4 14 -8 2 -5 42 -29 90 -55 48 -26 90 -52 93 -57 3 -6 15 -10 26 -10 10
0 19 -3 19 -8 0 -4 21 -18 48 -32 26 -13 49 -27 52 -30 3 -3 28 -17 55 -31 28
-14 93 -51 145 -81 52 -30 115 -66 140 -80 25 -14 151 -86 280 -160 241 -139
254 -146 425 -242 55 -31 107 -60 115 -65 29 -19 235 -136 245 -140 6 -2 39
-22 74 -43 35 -22 74 -44 85 -49 12 -5 42 -21 67 -37 68 -39 159 -92 199 -115
19 -11 305 -173 635 -362 330 -188 620 -353 645 -367 25 -14 104 -59 175 -100
72 -41 150 -86 175 -100 25 -14 153 -87 285 -163 132 -76 254 -145 270 -154
17 -9 81 -45 143 -81 63 -36 141 -80 175 -99 34 -19 64 -37 67 -40 3 -4 21
-15 40 -24 19 -9 64 -34 100 -55 l65 -38 3 -2847 c1 -1566 0 -2847 -3 -2847
-5 0 -44 22 -148 84 -43 25 -80 46 -81 46 -2 0 -44 25 -95 55 -50 31 -107 64
-126 75 -19 11 -50 28 -67 39 -44 25 -671 391 -778 454 -47 28 -103 60 -125
72 -22 13 -92 53 -155 90 -155 92 -279 164 -316 185 -16 10 -356 208 -755 440
-398 233 -737 431 -754 440 -16 9 -192 112 -390 227 -198 116 -377 220 -397
231 -20 12 -55 32 -77 46 -22 15 -43 26 -46 26 -3 0 -24 12 -48 27 -23 15 -96
58 -162 96 -66 38 -133 77 -150 87 -63 37 -336 196 -472 276 -78 46 -145 84
-149 84 -4 0 -15 6 -23 14 -9 8 -39 27 -67 42 -28 16 -87 49 -130 74 -109 62
-172 87 -251 98 -86 13 -93 13 -181 1 -102 -15 -166 -41 -250 -102 -119 -86
-203 -211 -239 -352 -4 -16 -9 -1796 -10 -3955 -3 -3803 -2 -3927 16 -3995 24
-90 33 -111 70 -171 73 -115 150 -172 627 -460 119 -72 314 -193 517 -319 70
-44 141 -88 157 -97 33 -20 276 -169 330 -203 19 -12 64 -40 100 -62 159 -97
208 -128 257 -160 29 -18 55 -33 57 -33 3 0 32 -18 65 -40 33 -22 64 -40 70
-40 5 0 11 -3 13 -7 2 -5 15 -15 29 -23 14 -8 128 -78 252 -155 125 -77 246
-152 269 -166 137 -83 784 -483 1177 -726 64 -39 127 -78 141 -86 14 -8 129
-78 255 -157 127 -78 239 -148 250 -154 11 -6 74 -45 140 -86 66 -41 128 -79
137 -85 50 -29 244 -149 248 -154 3 -3 19 -13 35 -22 29 -16 126 -75 183 -111
15 -10 42 -25 60 -35 17 -9 32 -20 32 -25 0 -4 5 -8 11 -8 10 0 90 -48 274
-165 28 -17 57 -34 65 -38 8 -4 148 -90 310 -190 l295 -184 3 -2907 c1 -1599
-1 -2905 -5 -2903 -103 60 -1289 751 -1314 765 -19 10 -182 106 -364 212 -181
106 -355 208 -385 225 -66 38 -181 104 -430 250 -102 59 -194 113 -205 119
-11 6 -27 16 -35 22 -8 6 -40 25 -70 41 -30 17 -93 53 -140 80 -47 27 -150 88
-230 135 -80 46 -221 129 -315 183 -93 54 -190 110 -215 125 -25 16 -61 37
-80 48 -19 11 -75 43 -123 71 -49 28 -93 51 -98 51 -5 0 -9 5 -9 10 0 6 -4 10
-9 10 -4 0 -53 26 -107 59 -87 51 -1330 775 -1409 821 -16 9 -370 215 -785
457 -415 243 -771 450 -790 461 -19 10 -195 113 -390 227 -195 114 -368 215
-385 224 -16 9 -41 24 -55 32 -25 16 -254 149 -320 186 -19 11 -60 35 -90 52
-30 18 -62 36 -70 41 -8 5 -37 22 -65 38 -27 17 -104 61 -170 100 -66 38 -241
140 -390 227 -148 87 -283 166 -300 175 -16 9 -93 54 -169 99 -76 44 -141 81
-143 81 -2 0 -39 22 -83 50 -44 27 -82 50 -85 50 -2 0 -38 20 -78 45 -41 25
-79 45 -85 45 -6 0 -12 4 -14 8 -1 4 -73 48 -158 97 -85 50 -162 95 -172 100
-9 6 -29 17 -45 26 -38 21 -564 327 -583 339 -24 15 -123 73 -145 85 -11 6
-129 75 -261 153 -133 77 -257 150 -275 160 -43 25 -450 262 -720 419 -113 66
-225 132 -250 146 -24 13 -295 172 -602 351 -307 179 -561 326 -563 326 -2 0
-28 15 -57 34 -50 32 -394 232 -487 284 -25 14 -49 28 -55 32 -5 4 -26 17 -45
28 -19 10 -97 56 -173 101 -76 44 -140 81 -143 81 -3 0 -28 15 -57 33 -29 19
-72 45 -97 59 -25 14 -139 81 -255 148 -115 68 -223 131 -240 140 -16 8 -84
48 -150 87 -66 39 -325 190 -575 335 -250 146 -714 416 -1030 600 -316 185
-591 345 -610 356 -58 33 -405 235 -409 238 -5 5 -7 5804 -1 5804 3 0 41 -21
85 -46 44 -25 104 -60 134 -76 80 -45 383 -217 401 -228 15 -8 256 -146 333
-189 20 -11 53 -30 72 -41 19 -11 50 -28 67 -39 53 -30 535 -303 782 -443 126
-72 250 -143 275 -158 25 -15 109 -62 186 -106 77 -43 225 -127 329 -186 104
-59 193 -108 197 -108 5 0 9 -4 9 -10 0 -5 5 -10 11 -10 5 0 56 -26 112 -59
107 -61 152 -87 227 -129 76 -42 464 -262 480 -272 13 -8 56 -32 243 -139 20
-11 54 -31 75 -43 20 -12 57 -32 82 -46 25 -13 50 -27 55 -32 6 -4 35 -21 65
-37 54 -30 155 -87 235 -132 22 -13 175 -100 340 -193 165 -94 312 -179 327
-189 15 -11 30 -19 34 -19 3 0 49 -25 102 -55 54 -31 106 -61 117 -67 11 -6
61 -35 110 -63 133 -77 242 -122 270 -112 8 4 15 2 15 -3 0 -14 166 -9 223 7
29 8 57 15 63 16 48 11 153 78 212 135 78 76 121 145 154 247 l23 70 0 4010 0
4010 -23 75 c-59 188 -156 284 -422 421 -47 24 -86 47 -88 52 -2 4 -7 7 -11 7
-4 0 -75 36 -157 81 -175 95 -268 146 -344 187 -30 16 -100 54 -155 84 -55 30
-136 74 -180 98 -44 23 -134 72 -200 108 -66 36 -149 81 -185 100 -36 19 -87
47 -115 62 -27 15 -131 71 -230 125 -240 130 -322 175 -370 201 -22 12 -67 37
-100 54 -209 112 -407 219 -425 230 -8 5 -46 26 -85 46 -38 20 -82 45 -97 56
-16 11 -28 17 -28 14 0 -3 -23 8 -50 24 -28 17 -53 30 -55 30 -2 0 -30 15 -62
34 -32 18 -98 55 -148 81 -49 27 -164 89 -255 138 -91 49 -194 105 -230 124
-36 20 -112 61 -170 93 -58 31 -145 79 -195 105 -49 27 -108 58 -130 70 -22
12 -69 38 -105 57 -36 20 -87 48 -115 63 -66 36 -152 83 -250 135 -44 24 -115
63 -157 87 -43 23 -79 43 -82 43 -2 0 -35 17 -73 38 -37 22 -97 55 -133 74
-232 125 -827 448 -885 480 -38 22 -85 46 -102 54 -18 8 -33 20 -34 27 0 16 0
5574 0 5650 1 32 4 56 9 54 4 -3 276 -158 606 -346z m18085 -2885 c53 -30 112
-63 131 -73 19 -11 253 -143 520 -293 267 -151 503 -283 525 -295 22 -12 328
-184 680 -382 352 -198 663 -372 690 -388 28 -15 80 -45 117 -66 36 -21 71
-39 77 -39 6 0 11 -4 11 -10 0 -5 4 -10 10 -10 5 0 52 -25 105 -55 52 -30 96
-55 98 -55 2 0 44 -23 93 -51 83 -48 381 -216 749 -422 88 -49 186 -105 218
-123 32 -19 60 -34 62 -34 2 0 42 -22 90 -50 48 -27 89 -50 93 -50 3 0 13 -6
21 -14 9 -7 45 -29 81 -48 36 -19 94 -52 130 -72 36 -20 81 -44 100 -54 19 -9
37 -20 40 -23 3 -3 100 -59 215 -123 116 -65 217 -121 225 -126 56 -34 208
-117 223 -123 10 -4 17 -12 15 -18 -3 -9 -493 -302 -833 -499 -56 -32 -249
-146 -362 -213 -61 -37 -117 -67 -122 -67 -6 0 -11 -4 -11 -10 0 -5 -4 -10 -9
-10 -5 0 -49 -24 -98 -53 -108 -66 -591 -350 -653 -385 -25 -13 -52 -31 -61
-38 -8 -8 -18 -14 -21 -14 -3 0 -118 -66 -254 -146 -137 -81 -262 -155 -279
-164 -16 -10 -79 -46 -138 -81 -59 -35 -115 -69 -125 -74 -9 -6 -59 -35 -110
-65 -51 -30 -108 -63 -125 -74 -188 -110 -284 -166 -344 -202 -40 -24 -75 -44
-78 -44 -4 0 -21 -11 -39 -25 -18 -14 -35 -25 -38 -25 -3 0 -151 -86 -329
-191 -178 -105 -338 -199 -355 -209 -17 -10 -197 -116 -400 -235 -203 -120
-394 -231 -424 -248 l-55 -30 -210 120 c-116 66 -226 130 -245 141 -19 10 -67
38 -106 61 -39 22 -75 41 -79 41 -5 0 -16 6 -24 14 -9 7 -38 26 -66 41 -27 15
-129 73 -225 128 -96 55 -194 110 -217 122 -23 12 -48 26 -55 32 -7 6 -38 24
-68 41 -30 16 -142 80 -248 141 -106 61 -195 111 -198 111 -3 0 -18 8 -32 19
-15 10 -47 29 -72 43 -25 14 -97 54 -160 90 -63 36 -131 74 -150 85 -19 11
-111 64 -205 118 -93 54 -186 107 -205 118 -45 24 -139 78 -165 94 -11 7 -36
20 -55 30 -19 10 -36 21 -38 26 -2 4 -7 7 -11 7 -5 0 -190 104 -412 231 -222
127 -429 245 -459 262 -30 16 -71 40 -90 52 -19 12 -64 38 -100 57 -36 20
-371 211 -745 425 -374 215 -700 401 -725 415 -92 52 -110 63 -110 70 0 7 35
29 130 81 36 19 94 52 130 72 144 83 327 187 410 232 30 17 152 86 270 153
118 68 233 132 255 144 22 12 94 53 160 91 66 37 140 79 165 93 25 14 214 121
420 237 206 117 392 222 413 234 21 12 127 72 235 133 108 61 242 137 297 168
173 98 349 197 390 220 22 12 90 50 150 85 192 109 495 280 605 342 19 11 98
55 175 99 77 43 142 82 143 86 2 4 8 8 13 8 11 0 928 516 944 531 13 13 9 14
114 -45z m-13433 -13124 c-5 -4 -206 106 -216 118 -3 4 -12 9 -21 13 -10 3
-142 77 -295 165 -154 87 -306 174 -339 192 -33 18 -64 36 -70 40 -5 4 -30 19
-55 32 -72 40 -416 235 -525 298 -55 31 -120 69 -145 82 -25 14 -142 81 -260
148 -118 68 -237 135 -265 150 -51 28 -307 173 -335 190 -16 10 -264 151 -320
183 -19 10 -64 36 -100 57 -36 20 -85 49 -110 62 -25 14 -142 81 -260 148
-118 67 -271 154 -340 192 -69 39 -129 74 -135 78 -5 4 -37 22 -70 40 -33 18
-168 95 -300 170 -132 75 -261 149 -288 163 -55 31 -114 65 -175 100 l-43 24
50 32 c28 17 53 31 55 31 3 0 49 26 103 58 54 32 105 61 113 65 8 4 31 17 50
28 37 22 289 167 347 200 60 34 161 92 443 254 567 326 677 389 765 440 50 29
110 64 135 77 25 14 61 35 80 46 19 11 57 32 83 47 26 14 93 52 148 85 56 33
103 60 105 60 2 0 22 11 44 25 21 13 74 44 117 68 43 24 186 106 318 182 132
76 259 149 283 162 23 13 91 52 151 87 59 34 114 66 122 69 8 4 30 17 49 28
19 12 53 31 75 42 22 12 42 24 45 27 4 4 305 177 455 262 17 9 143 81 280 160
l250 144 3 -2660 c1 -1462 0 -2661 -2 -2664z m7779 1926 c72 -42 146 -85 165
-95 19 -11 112 -65 205 -120 94 -56 187 -110 208 -122 62 -35 99 -56 177 -103
41 -25 95 -56 120 -70 25 -14 135 -79 245 -143 110 -65 214 -125 231 -135 17
-10 143 -83 280 -163 137 -80 264 -153 281 -163 18 -11 186 -109 374 -219 188
-110 351 -204 363 -210 12 -5 23 -12 26 -15 4 -5 144 -87 253 -149 27 -15 145
-84 377 -219 55 -32 44 -26 241 -142 90 -52 179 -104 198 -115 20 -11 68 -39
106 -62 77 -45 425 -248 603 -352 93 -54 109 -67 95 -75 -10 -5 -190 -115
-401 -243 -210 -128 -387 -233 -391 -233 -5 0 -11 -3 -13 -8 -4 -9 -256 -162
-267 -162 -5 0 -11 -4 -13 -8 -1 -4 -102 -68 -223 -141 -279 -170 -528 -321
-563 -343 -15 -9 -38 -23 -52 -31 -14 -8 -167 -101 -340 -207 -173 -106 -327
-200 -342 -209 -46 -27 -282 -171 -298 -181 -8 -5 -112 -68 -230 -140 -118
-71 -220 -133 -226 -137 -5 -4 -19 -13 -30 -19 -10 -6 -30 -17 -44 -25 -14 -8
-32 -19 -40 -25 -8 -7 -31 -21 -50 -31 -19 -11 -127 -76 -240 -145 -113 -69
-295 -180 -405 -246 -110 -67 -205 -125 -210 -130 -6 -5 -15 -11 -20 -13 -11
-5 -140 -81 -232 -139 l-63 -39 0 2805 c0 1543 3 2803 8 2801 4 -2 66 -38 137
-79z m5125 -6597 c0 -1587 -2 -2886 -4 -2888 -2 -2 -140 80 -307 183 -167 103
-333 205 -369 227 -36 21 -81 49 -100 62 -19 12 -154 96 -300 185 -146 90
-317 195 -380 234 -63 39 -122 76 -132 81 -10 6 -126 78 -259 160 -133 83
-247 152 -253 154 -6 2 -13 7 -16 10 -3 3 -14 11 -25 18 -49 29 -954 586
-1280 789 -88 54 -169 104 -180 110 -28 16 -569 349 -630 389 -27 17 -86 54
-130 80 -68 41 -264 162 -343 211 -22 14 -15 20 185 141 115 69 279 169 365
222 87 53 166 101 175 106 31 17 96 57 165 102 37 24 69 43 72 43 2 0 60 34
128 76 67 42 202 124 298 182 96 59 213 130 260 159 160 98 225 138 245 149
21 11 720 437 1240 754 344 211 978 596 993 605 47 27 257 155 339 207 51 32
95 58 97 58 3 0 33 18 68 40 34 22 65 39 70 38 4 -2 8 -1301 8 -2887z m12900
-46 c0 -2419 -1 -2544 -17 -2538 -10 4 -20 9 -23 12 -3 3 -23 16 -45 27 -22
12 -211 114 -420 227 -209 112 -420 226 -470 252 -49 26 -137 73 -195 105 -58
31 -141 76 -185 100 -44 24 -102 55 -130 70 -27 15 -86 46 -130 70 -44 23 -93
50 -110 60 -16 9 -79 43 -140 75 -60 32 -114 61 -120 65 -5 4 -64 35 -130 70
-66 34 -124 66 -130 70 -5 4 -68 38 -140 75 -71 37 -134 71 -140 75 -5 4 -59
33 -120 65 -60 32 -123 66 -140 75 -16 9 -70 38 -120 65 -49 26 -137 74 -195
105 -58 31 -139 75 -180 97 -41 22 -131 71 -200 108 -69 37 -152 82 -185 100
-33 18 -153 82 -267 144 -113 61 -211 111 -217 111 -6 0 -11 3 -11 8 0 4 -10
12 -23 18 -31 14 -202 105 -293 155 l-75 42 43 25 c24 13 57 32 74 42 154 89
199 116 202 122 2 5 8 8 13 8 7 0 704 402 1164 670 17 10 75 43 130 75 55 31
116 66 135 77 89 52 593 345 655 381 39 23 79 47 90 53 11 6 81 46 155 89 74
43 149 86 165 95 17 9 87 50 155 90 69 40 184 107 255 148 72 41 200 116 285
165 85 49 171 99 190 109 19 11 89 52 155 90 66 39 154 90 195 114 41 24 167
98 280 163 113 66 206 120 208 120 1 1 2 -1144 2 -2544z"/>
<path d="M32698 27035 c-2 -2 -13 -6 -24 -8 -47 -9 -83 -23 -139 -52 -141 -74
-240 -129 -245 -134 -3 -3 -27 -18 -55 -32 -50 -26 -125 -66 -220 -119 -455
-251 -746 -411 -815 -448 -47 -25 -89 -48 -95 -52 -10 -8 -75 -44 -180 -100
-94 -51 -368 -202 -390 -215 -11 -7 -23 -12 -26 -11 -3 1 -13 -5 -21 -12 -8
-6 -35 -23 -59 -36 -35 -18 -457 -251 -674 -370 -22 -12 -146 -80 -275 -151
-129 -70 -251 -138 -270 -149 -19 -12 -51 -30 -70 -39 -19 -10 -42 -22 -50
-27 -8 -5 -98 -55 -200 -111 -102 -56 -203 -111 -225 -123 -22 -13 -92 -51
-155 -86 -63 -34 -135 -74 -160 -88 -25 -14 -88 -48 -140 -77 -52 -29 -147
-81 -210 -117 -63 -36 -146 -82 -185 -103 -38 -20 -92 -50 -120 -65 -96 -53
-230 -128 -265 -147 -20 -11 -71 -39 -115 -63 -44 -24 -114 -62 -155 -85 -41
-23 -100 -56 -130 -72 -238 -128 -616 -339 -618 -345 -2 -4 -8 -8 -14 -8 -6 0
-61 -28 -122 -62 -61 -33 -138 -76 -171 -94 -128 -70 -221 -165 -274 -279 -13
-27 -24 -54 -25 -60 -1 -5 -4 -14 -8 -20 -25 -41 -28 -260 -27 -2725 1 -1579
5 -2592 11 -2634 5 -38 16 -82 24 -98 8 -15 12 -28 9 -28 -4 0 9 -28 27 -62
52 -99 212 -248 280 -262 7 -2 26 -8 43 -15 58 -24 128 -33 223 -28 101 5 127
9 138 20 4 4 15 7 25 7 16 0 93 37 184 90 22 12 60 34 85 48 25 14 92 52 150
85 58 33 125 71 150 85 37 21 191 108 370 210 19 10 118 66 220 124 176 100
268 152 425 242 143 82 170 97 188 102 9 4 17 10 17 15 0 5 4 9 9 9 5 0 105
54 223 121 117 67 231 131 253 143 121 66 604 341 627 357 15 11 30 19 33 19
3 0 68 35 143 79 75 43 157 89 182 103 25 14 209 118 410 233 201 114 394 223
430 242 36 20 70 39 75 43 9 6 156 89 315 178 25 13 50 28 55 32 6 4 33 20 60
35 28 15 100 55 160 90 91 52 935 530 1560 883 83 47 177 99 210 116 86 45
201 163 248 254 20 40 39 85 42 100 4 15 9 41 13 57 9 40 9 5180 0 5225 -11
51 -24 94 -36 116 -6 10 -13 26 -17 34 -44 108 -178 229 -313 283 -68 27 -90
31 -198 34 -66 1 -123 1 -126 -2z m-478 -3070 l0 -1486 -42 24 c-24 13 -115
66 -203 117 -88 51 -178 103 -200 115 -22 13 -85 49 -140 82 -55 32 -107 62
-115 66 -8 4 -28 15 -45 26 -16 10 -46 27 -65 38 -19 11 -245 142 -503 292
-257 149 -471 271 -476 271 -5 0 -11 4 -13 8 -1 5 -28 22 -58 39 -30 16 -120
68 -200 115 -141 83 -379 220 -450 261 -88 49 -120 69 -120 75 0 4 17 15 38
24 20 9 64 33 97 52 33 20 67 39 75 43 8 3 78 41 155 83 77 42 172 94 210 115
39 21 75 41 80 45 6 4 46 27 90 50 44 24 139 76 210 115 72 40 162 89 200 110
39 21 84 46 100 55 17 10 55 31 85 47 52 29 340 187 405 223 17 9 56 31 88 48
31 18 83 46 115 64 31 17 75 41 97 53 22 12 65 36 95 52 30 17 143 79 250 138
107 59 199 111 205 116 35 34 35 53 35 -1476z m-3092 -1051 c405 -235 748
-434 762 -444 14 -9 54 -33 90 -52 36 -20 144 -82 240 -138 96 -57 191 -112
210 -122 38 -22 184 -107 212 -123 9 -5 47 -28 85 -49 37 -22 149 -86 248
-144 99 -58 193 -113 208 -121 16 -9 36 -20 45 -26 10 -5 101 -59 205 -118
103 -60 187 -112 187 -116 0 -3 -17 -15 -37 -26 -21 -11 -90 -49 -153 -86 -63
-36 -140 -79 -170 -96 -30 -17 -125 -70 -210 -118 -85 -49 -168 -95 -185 -103
-16 -8 -37 -20 -45 -27 -8 -7 -40 -26 -70 -42 -55 -30 -196 -109 -229 -128 -9
-5 -73 -41 -141 -79 -69 -39 -126 -73 -128 -78 -2 -4 -8 -8 -12 -8 -7 0 -182
-97 -318 -175 -9 -5 -49 -28 -87 -49 -116 -66 -134 -75 -172 -98 -21 -11 -87
-49 -148 -83 -60 -34 -177 -100 -260 -147 -82 -47 -168 -96 -190 -108 -22 -12
-105 -59 -185 -105 -201 -114 -446 -253 -495 -280 -31 -16 -238 -135 -255
-145 -13 -8 -176 -100 -340 -192 -83 -47 -125 -70 -190 -108 -66 -38 -259
-148 -340 -193 -25 -14 -103 -59 -175 -100 -71 -41 -132 -73 -133 -71 -8 6 -3
3737 5 3744 4 4 40 25 78 45 39 21 104 57 145 80 41 23 107 59 145 80 39 21
151 83 250 138 99 54 214 117 255 139 41 22 89 48 105 58 17 10 50 29 75 42
134 73 170 93 220 122 113 64 135 75 148 76 7 0 344 -192 750 -426z"/>
</g>
</svg>
